<?xml version="1.0" encoding="utf-8"?>
<!-- Generator: Adobe Illustrator 18.0.0, SVG Export Plug-In . SVG Version: 6.00 Build 0)  -->
<!DOCTYPE svg PUBLIC "-//W3C//DTD SVG 1.1//EN" "http://www.w3.org/Graphics/SVG/1.1/DTD/svg11.dtd">
<svg version="1.1" id="Layer_1" xmlns="http://www.w3.org/2000/svg" xmlns:xlink="http://www.w3.org/1999/xlink" x="0px" y="0px"
	 viewBox="0 0 265.9 265.9" enable-background="new 0 0 265.9 265.9" xml:space="preserve">
<g>
	<path fill="#464342" d="M18.9,133c0,45.1,26.2,84.2,64.3,102.7L28.8,86.5C22.4,100.7,18.9,116.4,18.9,133L18.9,133z M210,127.2
		c0-14.1-5.1-23.9-9.4-31.5c-5.8-9.4-11.2-17.4-11.2-26.7c0-10.5,8-20.2,19.2-20.2c0.5,0,1,0.1,1.5,0.1
		c-20.3-18.6-47.3-29.9-77-29.9c-39.8,0-74.9,20.4-95.3,51.4c2.7,0.1,5.2,0.1,7.3,0.1c11.9,0,30.4-1.4,30.4-1.4
		c6.1-0.4,6.9,8.7,0.7,9.4c0,0-6.2,0.7-13.1,1.1L104.6,203l25-74.9l-17.8-48.7c-6.1-0.4-12-1.1-12-1.1c-6.1-0.4-5.4-9.8,0.7-9.4
		c0,0,18.8,1.4,30,1.4c11.9,0,30.4-1.4,30.4-1.4c6.2-0.4,6.9,8.7,0.7,9.4c0,0-6.2,0.7-13.1,1.1l41.2,122.6l11.4-38
		C206.2,148.3,210,137,210,127.2L210,127.2z M135,142.9l-34.2,99.4c10.2,3,21,4.6,32.2,4.6c13.3,0,26-2.3,37.9-6.5
		c-0.3-0.5-0.6-1-0.8-1.6L135,142.9L135,142.9z M233.1,78.2c0.5,3.6,0.8,7.5,0.8,11.7c0,11.6-2.2,24.6-8.7,40.9l-34.8,100.7
		C224.2,211.8,247,175,247,133C247,113.1,242,94.5,233.1,78.2L233.1,78.2z M133,0C59.7,0,0,59.6,0,133c0,73.3,59.7,133,133,133
		c73.3,0,133-59.6,133-133C265.9,59.6,206.3,0,133,0L133,0z M133,259.8C63,259.8,6.1,202.9,6.1,133C6.1,63,63,6.1,133,6.1
		c70,0,126.9,56.9,126.9,126.9C259.8,202.9,202.9,259.8,133,259.8L133,259.8z"/>
</g>
</svg>
