<?xml version="1.0" encoding="utf-8"?>
<!-- Generator: Adobe Illustrator 18.0.0, SVG Export Plug-In . SVG Version: 6.00 Build 0)  -->
<!DOCTYPE svg PUBLIC "-//W3C//DTD SVG 1.1//EN" "http://www.w3.org/Graphics/SVG/1.1/DTD/svg11.dtd">
<svg version="1.1" id="Layer_1" xmlns="http://www.w3.org/2000/svg" xmlns:xlink="http://www.w3.org/1999/xlink" x="0px" y="0px"
	 viewBox="0.7 0.7 253.4 255.2" enable-background="new 0.7 0.7 253.4 255.2" xml:space="preserve">
<g>
	<path fill="#F9AE41" d="M254.1,35.3c0-18.5-15-33.5-33.5-33.5c-16.9,0-30.8,12.5-33.1,28.8c-0.2-0.1-0.3-0.2-0.3-0.2
		c-27.4-12.4-50.5,9.5-50.5,9.5l-61,61.3l24.1,23.2l49.1-48.2c22.9-22.9,35.4-7.4,35.4-7.4c17.3,14.6,0.6,31.8,0.6,31.8l24.7,23.8
		c20.2-21.8,21.3-40.8,15.2-55.9C241.3,66.5,254.1,52.4,254.1,35.3"/>
	<path fill="#EE4035" d="M225.1,189.3c0.1-0.2,0.2-0.3,0.2-0.3c12.4-27.4-9.5-50.5-9.5-50.5l-61.3-61l-23.2,24.1l48.2,49.1
		c22.9,22.9,7.4,35.4,7.4,35.4c-14.6,17.3-31.8,0.6-31.8,0.6l-23.8,24.7c21.8,20.2,40.8,21.3,55.9,15.2
		c2.1,16.5,16.1,29.3,33.2,29.3c18.5,0,33.5-15,33.5-33.5C253.9,205.6,241.4,191.6,225.1,189.3"/>
	<path fill="#4F91CD" d="M155,132.2l-49.1,48.2c-22.9,22.9-35.4,7.4-35.4,7.4c-17.3-14.6-0.6-31.8-0.6-31.8l-24.7-23.8
		C25,154,23.8,173,29.9,188.2c-16.5,2.1-29.3,16.1-29.3,33.2c0,18.5,15,33.5,33.5,33.5c16.9,0,30.8-12.5,33.1-28.7
		c0.2,0.1,0.3,0.2,0.3,0.2c27.4,12.4,50.5-9.5,50.5-9.5l61-61.3L155,132.2"/>
	<path fill="#7AC043" d="M75.3,106C52.3,83,67.9,70.5,67.9,70.5c14.6-17.3,31.8-0.6,31.8-0.6l23.8-24.7
		C101.7,25.1,82.7,23.9,67.6,30C65.5,13.5,51.4,0.7,34.4,0.7c-18.5,0-33.5,15-33.5,33.5c0,16.9,12.5,30.8,28.8,33.1
		c-0.1,0.2-0.2,0.3-0.2,0.3C17.1,95.1,39,118.2,39,118.2l61.3,61l23.2-24.1L75.3,106"/>
</g>
</svg>
