<?xml version="1.0" encoding="utf-8"?>
<!-- Generator: Adobe Illustrator 18.0.0, SVG Export Plug-In . SVG Version: 6.00 Build 0)  -->
<!DOCTYPE svg PUBLIC "-//W3C//DTD SVG 1.1//EN" "http://www.w3.org/Graphics/SVG/1.1/DTD/svg11.dtd">
<svg version="1.1" id="Layer_1" xmlns="http://www.w3.org/2000/svg" xmlns:xlink="http://www.w3.org/1999/xlink" x="0px" y="0px"
	 viewBox="0.9 138.4 221 255" enable-background="new 0.9 138.4 221 255" xml:space="preserve">
<g>
	<path fill="#136DA9" d="M73.8,179C29,197.9,0.9,235.1,0.9,282.9c0,61.1,49.5,110.5,110.5,110.5s110.5-49.5,110.5-110.5
		c0-73.5-68.2-102.5-68.2-102.5s-14.9-6.2-23.2-11.7c0,0-10.6-6.4-28.9-30.1C101.6,138.5,102,165.4,73.8,179"/>
	<path fill="#F0F0F0" d="M100.4,372.2c-3.9-2.7-3-11.3,7.6-5.2c0,0,22.4,16.5,57.9-3.3c2.8-1.5,6.1,3.9-2.6,8.8
		C163.3,372.6,127.4,391,100.4,372.2L100.4,372.2z"/>
	<path fill="none" stroke="#FFFDFF" d="M100.4,372.2c-3.9-2.7-3-11.3,7.6-5.2c0,0,22.4,16.5,57.9-3.3c2.8-1.5,6.1,3.9-2.6,8.8
		C163.3,372.6,127.4,391,100.4,372.2L100.4,372.2z"/>
	<path fill="#F0F0F0" d="M146.1,344.9c13,1.5,8.6,7.8,12.1,8.8c7.1,2,4.1-5.8,4.1-5.8c-5.3-10.6-14.4-9.9-14.4-9.9
		c-14.3-2.2-24.9,11.4-24.9,11.4c-2.6,5.8,1.1,6.1,2.4,5.5C132.3,351.7,136.6,343.7,146.1,344.9L146.1,344.9z"/>
	<path fill="none" stroke="#FFFDFF" d="M146.1,344.9c13,1.5,8.6,7.8,12.1,8.8c7.1,2,4.1-5.8,4.1-5.8c-5.3-10.6-14.4-9.9-14.4-9.9
		c-14.3-2.2-24.9,11.4-24.9,11.4c-2.6,5.8,1.1,6.1,2.4,5.5C132.3,351.7,136.6,343.7,146.1,344.9L146.1,344.9z"/>
	<path fill="#008ECE" d="M15.4,338.7c0,0,39.6,32.9,136.2-40.3c0,0,48.5-30.4,47-82.6c0,0-15.7-22.5-42.1-34.2
		c-3.8-1.7-36.8-19.7-54.8-42.3c0,0-3.2,65.6-87.3,91.6c0,0-21.2,31.3-9.6,82C4.7,312.9,12.1,333.5,15.4,338.7"/>
	<path fill="#F0F0F0" d="M78.3,350.9c0,0-33,0.9-28.9-34.2c0,0,6.9-39.5,53.2-30.8c0,0,10.1,2.2,28.9,16.7c0,0,12.4,9.6,19.3,9.4
		c0,0,5.3,0.5,16.4-6.5c0,0,22.5-17.4,30.4-16.9c0.2,0,15.9-1.7,15.9,23.6c0,0,0.3,27.9-20.8,37.3c0,0-5.6,1.9-11.5-4.4
		c0,0-17.2-19.6-25.7-22.8c0,0-4.9-1.9-11.4,0.4c0,0-4.2,0.4-21.6,12C122.2,334.8,93.1,353.1,78.3,350.9L78.3,350.9z"/>
	<path fill="none" stroke="#FFFDFF" d="M78.3,350.9c0,0-33,0.9-28.9-34.2c0,0,6.9-39.5,53.2-30.8c0,0,10.1,2.2,28.9,16.7
		c0,0,12.4,9.6,19.3,9.4c0,0,5.3,0.5,16.4-6.5c0,0,22.5-17.4,30.4-16.9c0.2,0,15.9-1.7,15.9,23.6c0,0,0.3,27.9-20.8,37.3
		c0,0-5.6,1.9-11.5-4.4c0,0-17.2-19.6-25.7-22.8c0,0-4.9-1.9-11.4,0.4c0,0-4.2,0.4-21.6,12C122.2,334.8,93.1,353.1,78.3,350.9
		L78.3,350.9z"/>
	<path fill="#008ECE" d="M95.8,225c21.3-30.6,6-86.5,6-86.5c-1.9,30.4-27.5,40.3-27.5,40.3c-46,19.8-59.8,51.2-59.8,51.2
		C24.2,244,50.3,289.9,95.8,225"/>
	<path fill="#A0D8F1" d="M101.6,138.4c0,0,2.8,25.6-11.1,33.9c0,0-22.3,10.5-29.1,13.8c0,0-28.6,17.3-38,33.5c0,0-20.2,27,7.7,20.6
		c0,0,50.4-14.2,70.8-57.1c0,0,1.2-3.6-2.6-7.3C99.4,175.7,114.7,164.1,101.6,138.4"/>
	<path fill="#F0F0F0" d="M101.6,138.4c0,0,1.1,17.5-13.4,32c0,0-4.4,6.1-26.8,15.7c0,0-25.7,13.4-37.3,32.1c0,0-17.1,20.6,6.4,15.1
		c0,0,47.5-17.5,64.9-49.7c0,0,2.4-3.4-1.2-6.9C94.4,176.6,111.2,163.3,101.6,138.4"/>
</g>
</svg>
